# xmcd
#
# Track frame offsets:
#	150
#	9825
#	22350
#	35325
#	49200
#	62925
#	77325
#	91275
#	101775
#	117000
#	130575
#	146775
#	160575
#	179925
#	195450
#	214800
#	232575
#	252075
#
# Disc length: 3596 seconds
#
# Revision: 0
# Processed by: cddbd v1.5.2PL0 Copyright (c) Steve Scherf et al.
# Submitted via: EZCDAudioConverter 8.3.2.1
#
DISCID=ed0e0a12
DTITLE=Don Williams - Don Williams - 35th Anniversary
DYEAR=2019
DGENRE=Country
TTITLE0=Dimitri Tiomkine, Paul Webster - My Rifle, My Pony And Me
TTITLE1=Charles Cochran, Roger F. Cook - Years From Now
TTITLE2=Niles A. Borop Iii, Hunter Moore - You Love Me Through It All
TTITLE3=H Jones - Pretend
TTITLE4=Don Cook, Jeff Allen - Miracles
TTITLE5=Bob Corbin - I'll Never Be In Love Again
TTITLE6=George Chandler, Jimmy Chambers - Crying In The Rain
TTITLE7=Van Zandt - In The Morning
TTITLE8=Michael Reid, Rory Bourke - I Wouldn't Be A Man
TTITLE9=Al Turney - I Wouldn't Want To Live If You Didn't Love Me
TTITLE10=Donald R. Williams - Crying Eyes
TTITLE11=Alan Rush, Dennis Linde - Walking A Broken Heart
TTITLE12=Beth Neilson Chapman - Maybe That's All It Takes
TTITLE13=A.J. Gundell, Len Handler - Harry And Joe
TTITLE14=Danny Flowers, Hank DeVito - Senorita
TTITLE15=John Ramey, Doug Gill, Bobby Taylor - I Just Come Here For The Music
TTITLE16=R. Anthony Smith - Infinity
TTITLE17=Gordie Edmond Johnson - Ride On
EXTD=
EXTT0=
EXTT1=
EXTT2=
EXTT3=
EXTT4=
EXTT5=
EXTT6=
EXTT7=
EXTT8=
EXTT9=
EXTT10=
EXTT11=
EXTT12=
EXTT13=
EXTT14=
EXTT15=
EXTT16=
EXTT17=
PLAYORDER=
